<?xml version="1.0" encoding="iso-8859-1"?>
<!-- Uploaded to: SVG Repo, www.svgrepo.com, Generator: SVG Repo Mixer Tools -->
<svg height="800px" width="800px" version="1.1" id="Layer_1" xmlns="http://www.w3.org/2000/svg" xmlns:xlink="http://www.w3.org/1999/xlink" 
	 viewBox="0 0 511.982 511.982" xml:space="preserve">
<path style="fill:#656D78;" d="M511.874,350.095c-2.75-62.95-56.889-205.071-59.186-211.086c-0.797-2.078-2.219-3.851-4.062-5.078
	l-11.312-7.5v-10.945c0-4.703-3.078-8.859-7.594-10.21l-78.389-23.585c-3.047-0.914-6.344-0.422-9,1.351l-25.576,17.117H195.227
	L169.65,83.042c-2.656-1.773-5.953-2.265-9-1.351l-78.388,23.585c-4.516,1.351-7.594,5.507-7.594,10.21v10.945l-11.312,7.5
	c-1.844,1.227-3.266,3.007-4.062,5.078c-2.312,6.015-56.436,148.136-59.186,211.086c-1.609,36.75,15.062,56.779,29.327,67.092
	c15.296,11.078,31.093,13.359,31.749,13.453c3.281,0.453,6.594-0.641,8.937-2.969c0.219-0.203,21.187-20.797,44.624-41.373
	c43.405-38.124,54.67-40.655,56.014-40.827h170.464c1.342,0.172,12.607,2.703,56.014,40.827
	c23.436,20.576,44.404,41.17,44.607,41.373c2.016,1.984,4.703,3.062,7.484,3.062c0.484,0,0.969-0.031,1.469-0.094
	c0.656-0.094,16.451-2.375,31.748-13.453C496.811,406.875,513.483,386.845,511.874,350.095z"/>
<circle style="fill:#CCD1D9;" cx="138.421" cy="196.391" r="31.999"/>
<path style="fill:#AAB2BC;" d="M138.417,153.727c-23.515,0-42.655,19.14-42.655,42.663c0,23.522,19.14,42.662,42.655,42.662
	c23.53,0,42.67-19.14,42.67-42.662C181.087,172.867,161.947,153.727,138.417,153.727z M138.417,217.725
	c-11.765,0-21.328-9.57-21.328-21.335c0-11.766,9.562-21.336,21.328-21.336s21.343,9.57,21.343,21.336
	C159.76,208.155,150.182,217.725,138.417,217.725z"/>
<circle style="fill:#CCD1D9;" cx="309.321" cy="270.821" r="31.999"/>
<path style="fill:#AAB2BC;" d="M309.317,313.472c-23.516,0-42.654-19.141-42.654-42.655c0-23.53,19.139-42.663,42.654-42.663
	c23.531,0,42.67,19.132,42.67,42.663C351.987,294.332,332.848,313.472,309.317,313.472z M309.317,249.482
	c-11.766,0-21.328,9.57-21.328,21.335c0,11.766,9.562,21.327,21.328,21.327s21.344-9.562,21.344-21.327
	C330.661,259.053,321.083,249.482,309.317,249.482z"/>
<g>
	<path style="fill:#CCD1D9;" d="M202.665,302.816c-5.891,0-10.672-4.781-10.672-10.672v-42.662c0-5.891,4.781-10.664,10.672-10.664
		c5.89,0,10.656,4.773,10.656,10.664v42.662C213.321,298.035,208.555,302.816,202.665,302.816z"/>
	<path style="fill:#CCD1D9;" d="M223.992,281.473h-42.67c-5.891,0-10.656-4.766-10.656-10.656s4.765-10.663,10.656-10.663h42.67
		c5.891,0,10.672,4.772,10.672,10.663S229.883,281.473,223.992,281.473z"/>
</g>
<path style="fill:#FFCE54;" d="M370.19,146.298c4.172,4.172,4.172,10.922,0,15.086c-4.156,4.172-10.922,4.172-15.078,0
	c-4.172-4.164-4.172-10.914,0-15.086C359.268,142.134,366.034,142.134,370.19,146.298z"/>
<path style="fill:#A0D468;" d="M370.19,210.061c4.172,4.164,4.172,10.922,0,15.086c-4.156,4.164-10.922,4.164-15.078,0
	c-4.172-4.164-4.172-10.922,0-15.086C359.268,205.897,366.034,205.897,370.19,210.061z"/>
<path style="fill:#ED5564;" d="M402.188,178.062c4.172,4.164,4.172,10.922,0,15.086c-4.154,4.164-10.92,4.164-15.076,0
	c-4.172-4.164-4.172-10.922,0-15.086C391.268,173.898,398.034,173.898,402.188,178.062z"/>
<path style="fill:#5D9CEC;" d="M338.192,178.062c4.17,4.164,4.17,10.922,0,15.086c-4.156,4.164-10.922,4.164-15.078,0
	c-4.172-4.164-4.172-10.922,0-15.086C327.27,173.898,334.036,173.898,338.192,178.062z"/>
<polygon style="fill:#434A54;" points="195.227,100.159 213.321,142.814 298.661,142.814 316.755,100.159 "/>
</svg>